<svg width="144" height="144" viewBox="0 0 144 144" fill="none" xmlns="http://www.w3.org/2000/svg">
<path d="M71.3193 1.21875C71.684 0.928091 72.2007 0.928089 72.5654 1.21875L82.958 9.50586C83.7181 10.112 84.725 10.3121 85.6592 10.043L98.4316 6.36328C98.8798 6.23443 99.3574 6.43267 99.583 6.84082L106.013 18.4736C106.483 19.3245 107.337 19.8951 108.303 20.0039L121.511 21.4922C121.974 21.5444 122.34 21.9104 122.393 22.374L123.881 35.582C123.99 36.5481 124.56 37.4018 125.411 37.8721L137.044 44.3018C137.452 44.5274 137.65 45.005 137.521 45.4531L133.842 58.2256C133.573 59.1597 133.773 60.1667 134.379 60.9268L142.666 71.3193C142.957 71.684 142.957 72.2007 142.666 72.5654L134.379 82.958C133.773 83.7181 133.573 84.725 133.842 85.6592L137.521 98.4316C137.65 98.8798 137.452 99.3574 137.044 99.583L125.411 106.013C124.56 106.483 123.99 107.337 123.881 108.303L122.393 121.511C122.34 121.974 121.974 122.34 121.511 122.393L108.303 123.881C107.337 123.99 106.483 124.56 106.013 125.411L99.583 137.044C99.3574 137.452 98.8798 137.65 98.4316 137.521L85.6592 133.842C84.725 133.573 83.7181 133.773 82.958 134.379L72.5654 142.666C72.2008 142.957 71.684 142.957 71.3193 142.666L60.9268 134.379C60.1667 133.773 59.1597 133.573 58.2256 133.842L45.4531 137.521C45.005 137.65 44.5274 137.452 44.3018 137.044L37.8721 125.411C37.4018 124.56 36.5481 123.99 35.582 123.881L22.374 122.393C21.9104 122.34 21.5444 121.974 21.4922 121.511L20.0039 108.303C19.8951 107.337 19.3245 106.483 18.4736 106.013L6.84082 99.583C6.43267 99.3574 6.23443 98.8798 6.36328 98.4316L10.043 85.6592C10.3121 84.725 10.112 83.7181 9.50586 82.958L1.21875 72.5654C0.928091 72.2007 0.928089 71.684 1.21875 71.3193L9.50586 60.9268C10.112 60.1667 10.3121 59.1597 10.043 58.2256L6.36328 45.4531C6.23443 45.005 6.43267 44.5274 6.84082 44.3018L18.4736 37.8721C19.3245 37.4018 19.8951 36.5481 20.0039 35.582L21.4922 22.374C21.5444 21.9104 21.9104 21.5444 22.374 21.4922L35.582 20.0039C36.5481 19.8951 37.4018 19.3245 37.8721 18.4736L44.3018 6.84082C44.5274 6.43267 45.005 6.23443 45.4531 6.36328L58.2256 10.043C59.1598 10.3121 60.1667 10.112 60.9268 9.50586L71.3193 1.21875Z" fill="#F2EDF5" stroke="#754398" stroke-width="2"/>
</svg>
