<svg width="58" height="66" viewBox="0 0 58 66" fill="none" xmlns="http://www.w3.org/2000/svg">
<path opacity="0.5" d="M33.183 64.9602C43.7333 62.8475 57.375 55.2571 57.375 35.6314C57.375 17.7743 44.3036 5.88082 34.9043 0.416691C32.8151 -0.798309 30.375 0.798066 30.375 3.21119V9.38069C30.375 14.2474 28.3298 23.1304 22.6463 26.8261C19.7438 28.7127 16.605 25.8878 16.254 22.4453L15.9638 19.6171C15.6263 16.3298 12.2783 14.3352 9.6525 16.3399C4.93088 19.9343 0 26.2456 0 35.6281C0 59.6277 17.8504 65.6318 26.7739 65.6318C27.2959 65.6318 27.8404 65.615 28.4074 65.5812C29.9126 65.3922 28.4074 65.9153 33.183 64.9568" fill="#754398"/>
</svg>
